<svg version="1.2" xmlns="http://www.w3.org/2000/svg" viewBox="0 0 1440 900" width="1229" height="768"><defs><linearGradient id="P" gradientUnits="userSpaceOnUse"/><linearGradient id="g1" x2="1" href="#P" gradientTransform="matrix(1440,900,-808.989,1294.382,0,0)"><stop stop-color="#eef8ff"/><stop offset=".55" stop-color="#f4fff5"/><stop offset="1" stop-color="#eef8ff"/></linearGradient><radialGradient id="g2" cx="0" cy="0" r="1" href="#P" gradientTransform="matrix(38000,0,0,38000,38820,37780)"><stop stop-color="#4cc3d6" stop-opacity=".25"/><stop offset="1" stop-color="#4cc3d6" stop-opacity="0"/></radialGradient><radialGradient id="g3" cx="0" cy="0" r="1" href="#P" gradientTransform="matrix(29000,0,0,29000,28830,29430)"><stop stop-color="#48be52" stop-opacity=".2"/><stop offset="1" stop-color="#48be52" stop-opacity="0"/></radialGradient><radialGradient id="g4" cx="0" cy="0" r="1" href="#P" gradientTransform="matrix(24000,0,0,24000,24480,24260)"><stop stop-color="#4cc3d6" stop-opacity=".12"/><stop offset="1" stop-color="#4cc3d6" stop-opacity="0"/></radialGradient></defs><style>.a{fill:url(#g1)}.b{fill:url(#g2)}.c{fill:url(#g3)}.d{fill:url(#g4)}.e{opacity:.06;fill:#48be52}.f{opacity:.08;fill:#4cc3d6}</style><path fill-rule="evenodd" class="a" d="m0 0h1440v900h-1440z"/><path fill-rule="evenodd" class="b" d="m1200 540c-210.1 0-380-169.9-380-380 0-210.1 169.9-380 380-380 210.1 0 380 169.9 380 380 0 210.1-169.9 380-380 380z"/><path fill-rule="evenodd" class="c" d="m120 1010c-160.4 0-290-129.6-290-290 0-160.4 129.6-290 290-290 160.4 0 290 129.6 290 290 0 160.4-129.6 290-290 290z"/><path fill-rule="evenodd" class="d" d="m720 740c-132.7 0-240-107.3-240-240 0-132.7 107.3-240 240-240 132.7 0 240 107.3 240 240 0 132.7-107.3 240-240 240z"/><path class="e" d="m0 820c360-60 720 50 1080-20 180-35 300 10 360 30v70h-1440z"/><path class="f" d="m0 850c300-50 700 40 1100-10 200-25 300 5 340 20v40h-1440z"/></svg>